<?xml version="1.0" encoding="UTF-8" standalone="no"?>
<!-- Generator: Adobe Illustrator 13.0.0, SVG Export Plug-In . SVG Version: 6.00 Build 14948)  -->
<!DOCTYPE svg  PUBLIC '-//W3C//DTD SVG 1.0//EN'  'http://www.w3.org/TR/2001/REC-SVG-20010904/DTD/svg10.dtd'>
<svg id="svg2" xmlns="http://www.w3.org/2000/svg" xml:space="preserve" height="38px" viewBox="0 0 96 38" width="96px" version="1.0" y="0px" x="0px" xmlns:xlink="http://www.w3.org/1999/xlink" enable-background="new 0 0 96 38">
<g id="layer1" transform="translate(9.9562 -303.29)">
	<g id="g8099" stroke-width=".1" transform="translate(1.0652 22.021)">
		<path id="path6154" d="m5.105 305.94l7.75-8.936 52.297-0.006 4.938 8.934-64.985 0.02z" stroke="#ccc" fill="#ccc"/>
		<path id="path3194" stroke-linejoin="round" d="m6.582 288.77c0 1.644-1.332 2.977-2.976 2.977s-2.977-1.332-2.977-2.976v-0.001c-0.001-1.644 1.331-2.977 2.975-2.977s2.977 1.332 2.977 2.975l0.001 0.01z" stroke="#006" stroke-linecap="round" fill="#006"/>
		<path id="path3196" stroke-linejoin="round" d="m22.609 285.57c0 1.644-1.332 2.977-2.976 2.977s-2.977-1.332-2.977-2.976v-0.001c0-1.644 1.332-2.977 2.975-2.978 1.644 0 2.977 1.332 2.978 2.976v0z" stroke="#030" stroke-linecap="round" fill="#030"/>
		<path id="path3198" stroke-linejoin="round" d="m41.496 285.68c0 1.644-1.332 2.977-2.976 2.977s-2.977-1.332-2.977-2.976v-0.001c0-1.644 1.332-2.976 2.976-2.977 1.643 0 2.977 1.332 2.977 2.975v0z" stroke="#600" stroke-linecap="round" fill="#600"/>
		<path id="path3200" stroke-linejoin="round" d="m62.274 285.8c0 1.644-1.332 2.977-2.977 2.978-1.643 0-2.977-1.332-2.977-2.976v-0.002c0-1.644 1.332-2.976 2.976-2.977 1.644 0 2.977 1.332 2.978 2.976v0z" stroke="#003" stroke-linecap="round" fill="#003"/>
		<path id="path3202" stroke-linejoin="round" d="m78.414 288.31c0 1.644-1.332 2.977-2.977 2.977-1.643 0-2.977-1.332-2.977-2.975v-0.002c0-1.644 1.332-2.977 2.976-2.977s2.977 1.332 2.978 2.976v-0.01z" stroke="#000" stroke-linecap="round"/>
		<path id="path3204" d="m19.289 287.34v2.519h-3.263l-2.027 7.033 7.694 3.327-5.266-4.293 0.629-1.03v1.531l0.639 0.527h4.477v-2.703l2.031 2.703 1.249-0.012-2.04-7.074-3.265-0.01v-2.519" stroke="#030" fill="#030"/>
		<path id="path4184" stroke="#000" d="m75.151 290.02v2.519h-3.262c-1.298 3.222-2.418 8.107-3.895 9.665 0 0 1.225-0.123 2.225-1.123 1-1.001 1.844-3.22 2.594-4.142v5.517l-2.723 10.191v2.047l5.289-9.627 6.34 10.98-3.516-13.123v-5.985l5.427 8.815-4.358-13.216h-3.262v-2.519"/>
		<path id="path4186" d="m38.934 287.44v2.519h3.263l2.027 7.033-5.663 3.202 3.234-4.168-0.629-1.03v1.848l-0.078 0.099-4.786-0.006-0.246-0.254v-1.688l-0.629 1.03 2.547 2.637-4.975-1.671 2.027-7.033h3.263v-2.519" stroke="#600" fill="#600"/>
		<path id="path4195" d="m59.809 287.44v2.519h3.263l2.027 7.033-5.663 3.202 3.234-4.168-0.629-1.03v1.848l-0.078 0.099-5.042 0.006 0.011-1.953-1.817 1.655-6.703-4.426 5.649 1.329 1.84-3.596h3.264v-2.519" stroke="#003" fill="#003"/>
		<path id="path5170" d="m70.089 305.94l0.003 9.398-2.619 2.619h-3.303v-5.027h-53.055v2.916l-2.11 2.111h-3.9v-12.01l64.984-0.01z" stroke="#999" fill="#999"/>
		<path id="path6141" d="m6.516 304.19v-5.866c3.845 4.169 7.973 2.874 7.973 2.874-5.423-1.619-7.932-8.297-7.932-8.297h-2.59v-2.955h-0.729v2.955h-6.759s-1.012 0.243-2.469-0.891c-1.457-1.133-3.683-3.197-3.683-3.197s0.769 2.671 3.845 5.019 1.417 1.173 2.995 1.173 3.683 0 3.683 0v7.771l-3.885 14.004 6.718-10.686 1.345 2.934-0.011-3.121 1.499-1.7z" stroke="#006" fill="#006"/>
	</g>
</g>
</svg>
