<?xml version="1.0" encoding="UTF-8" standalone="no"?>
<!-- Created with Inkscape (http://www.inkscape.org/) -->

<svg
   xmlns:svg="http://www.w3.org/2000/svg"
   xmlns="http://www.w3.org/2000/svg"
   version="1.0"
   width="100"
   height="100"
   id="svg2">
  <defs
     id="defs5" />
  <path
     d="m 67.304417,87.23545 0,-2.116402 c 0,0 -6.613757,0.132275 -8.465609,-1.322751 -1.851852,-1.455027 -3.042328,-3.968254 -3.042328,-7.804233 0,-3.835979 0,-12.037037 0,-12.037037 0,0 17.592593,-1.851853 23.148149,-7.407408 5.555555,-5.555556 7.142856,-14.550264 7.142856,-20.10582 0,-2.777778 0.02911,-10.243841 0.02911,-14.146836 0,-2.38388 0.421245,-6.628384 3.656598,-6.628384 1.608726,0 4.118524,0.008 4.118524,0.008 l 0,-2.777777 c 0,0 -3.439153,-0.132276 -5.555555,-0.132276 -2.116402,0 -7.208995,0.330688 -9.78836,2.910053 -2.579365,2.579366 -4.232804,9.656085 -4.232804,21.825397 0,12.169313 -1.058201,15.476191 -4.100529,18.518519 -4.563971,4.563971 -14.41799,4.89418 -14.41799,4.89418 0,0 0,-30.687831 0,-34.920635 0,-4.232804 -0.132275,-6.481482 1.851852,-8.465609 1.984127,-1.984127 8.597884,-1.719576 8.597884,-1.719576 l 0,-3.042328 -32.492432,0 0,3.042328 c 0,0 6.613757,-0.264551 8.597884,1.719576 1.984127,1.984127 1.851852,4.232805 1.851852,8.465609 0,4.232804 0,34.920635 0,34.920635 0,0 -9.854019,-0.330209 -14.41799,-4.89418 C 26.743202,52.976191 25.685001,49.669313 25.685001,37.5 c 0,-12.169312 -1.653439,-19.246031 -4.232804,-21.825397 -2.579365,-2.579365 -7.671958,-2.910053 -9.78836,-2.910053 -2.1164019,0 -5.5555551,0.132276 -5.5555551,0.132276 l 0,2.777777 c 0,0 2.5097979,-0.008 4.1185241,-0.008 3.235353,0 3.656598,4.244504 3.656598,6.628384 0,3.902995 0.02911,11.369058 0.02911,14.146836 0,5.555556 1.587301,14.550264 7.142856,20.10582 5.555556,5.555555 23.148149,7.407408 23.148149,7.407408 0,0 0,8.201058 0,12.037037 0,3.835979 -1.190476,6.349206 -3.042328,7.804233 -1.851852,1.455026 -8.465609,1.322751 -8.465609,1.322751 l 0,2.116402"
     id="path1873"
     style="fill:#000000;fill-opacity:1;fill-rule:evenodd;stroke:none" />
</svg>
